<svg width="42" height="42" viewBox="0 0 42 42" fill="none" xmlns="http://www.w3.org/2000/svg">
<path fill-rule="evenodd" clip-rule="evenodd" d="M0 20.8333C0 9.32708 9.32708 0 20.8333 0C32.3396 0 41.6667 9.32708 41.6667 20.8333C41.6667 32.3375 32.3396 41.6667 20.8333 41.6667C9.32708 41.6667 0 32.3375 0 20.8333ZM20.166 28.9436L31.3319 15.4443C32.1507 14.4566 31.9429 13.0459 30.8699 12.2922C29.7919 11.5385 28.2593 11.732 27.4429 12.7197L18.1934 23.8993L14.2017 19.2061C13.3706 18.2251 11.8307 18.0542 10.7698 18.8214C9.70652 19.5863 9.52074 21.0015 10.3518 21.9779L16.2965 28.9683C16.761 29.5128 17.4698 29.8323 18.2203 29.8323H18.2374C18.9951 29.8278 19.7064 29.4993 20.166 28.9436Z" fill="#27AE60"/>
</svg>
