<svg width="315" height="64" viewBox="0 0 315 64" fill="none" xmlns="http://www.w3.org/2000/svg">
<rect y="31.1289" width="105" height="1" rx="0.5" fill="#BDBDBD"/>
<rect x="210" y="31.1289" width="105" height="1" rx="0.5" fill="#BDBDBD"/>
<path d="M156.851 63.9597C174.488 63.9597 188.833 49.6149 188.833 31.9813C188.833 14.3448 174.488 0 156.851 0C139.215 0 124.87 14.3448 124.87 31.9813C124.873 49.6149 139.218 63.9597 156.851 63.9597ZM156.851 0.579041C174.165 0.579041 188.253 14.6671 188.253 31.9813C188.253 49.2955 174.168 63.3807 156.854 63.3807C139.54 63.3807 125.452 49.2955 125.452 31.9813C125.452 14.6671 139.537 0.579041 156.851 0.579041Z" fill="#303030"/>
<path d="M153.084 28.2557C152.107 28.2519 151.266 28.0114 150.561 27.5341C149.86 27.0568 149.321 26.3655 148.942 25.4602C148.567 24.5549 148.381 23.4659 148.385 22.1932C148.385 20.9242 148.572 19.8428 148.947 18.9489C149.326 18.0549 149.866 17.375 150.567 16.9091C151.271 16.4394 152.11 16.2045 153.084 16.2045C154.057 16.2045 154.894 16.4394 155.595 16.9091C156.3 17.3788 156.841 18.0606 157.22 18.9545C157.599 19.8447 157.786 20.9242 157.783 22.1932C157.783 23.4697 157.593 24.5606 157.214 25.4659C156.839 26.3712 156.302 27.0625 155.601 27.5398C154.9 28.017 154.061 28.2557 153.084 28.2557ZM153.084 26.2159C153.75 26.2159 154.283 25.8807 154.68 25.2102C155.078 24.5398 155.275 23.5341 155.271 22.1932C155.271 21.3106 155.18 20.5758 154.999 19.9886C154.821 19.4015 154.567 18.9602 154.237 18.6648C153.911 18.3693 153.527 18.2216 153.084 18.2216C152.421 18.2216 151.891 18.553 151.493 19.2159C151.095 19.8788 150.894 20.8712 150.891 22.1932C150.891 23.0871 150.98 23.8333 151.158 24.4318C151.339 25.0265 151.595 25.4735 151.925 25.7727C152.254 26.0682 152.641 26.2159 153.084 26.2159ZM164.599 16.3636V28H162.139V18.6989H162.071L159.406 20.3693V18.1875L162.287 16.3636H164.599ZM153.584 35.3636V47H151.124V37.6989H151.055L148.391 39.3693V37.1875L151.271 35.3636H153.584ZM160.912 47.2557C159.935 47.2519 159.094 47.0114 158.389 46.5341C157.688 46.0568 157.149 45.3655 156.77 44.4602C156.395 43.5549 156.209 42.4659 156.213 41.1932C156.213 39.9242 156.401 38.8428 156.776 37.9489C157.154 37.0549 157.694 36.375 158.395 35.9091C159.099 35.4394 159.938 35.2045 160.912 35.2045C161.885 35.2045 162.723 35.4394 163.423 35.9091C164.128 36.3788 164.67 37.0606 165.048 37.9545C165.427 38.8447 165.615 39.9242 165.611 41.1932C165.611 42.4697 165.421 43.5606 165.043 44.4659C164.668 45.3712 164.13 46.0625 163.429 46.5398C162.728 47.017 161.889 47.2557 160.912 47.2557ZM160.912 45.2159C161.579 45.2159 162.111 44.8807 162.509 44.2102C162.906 43.5398 163.103 42.5341 163.099 41.1932C163.099 40.3106 163.009 39.5758 162.827 38.9886C162.649 38.4015 162.395 37.9602 162.065 37.6648C161.74 37.3693 161.355 37.2216 160.912 37.2216C160.249 37.2216 159.719 37.553 159.321 38.2159C158.923 38.8788 158.723 39.8712 158.719 41.1932C158.719 42.0871 158.808 42.8333 158.986 43.4318C159.168 44.0265 159.423 44.4735 159.753 44.7727C160.082 45.0682 160.469 45.2159 160.912 45.2159Z" fill="black"/>
</svg>
